<svg xmlns="http://www.w3.org/2000/svg" viewBox="0 0 100 100">
  <defs>
    <linearGradient id="bg" x1="0" y1="0" x2="1" y2="1">
      <stop offset="0%" stop-color="#7c5cff"/>
      <stop offset="100%" stop-color="#3e8bff"/>
    </linearGradient>
    <linearGradient id="card" x1="0" y1="0" x2="0" y2="1">
      <stop offset="0%" stop-color="#f6f7ff"/>
      <stop offset="100%" stop-color="#dadfef"/>
    </linearGradient>
    <linearGradient id="wallet" x1="0" y1="0" x2="0" y2="1">
      <stop offset="0%" stop-color="#252b45"/>
      <stop offset="100%" stop-color="#151a2b"/>
    </linearGradient>
  </defs>
  <rect width="100" height="100" rx="22" ry="22" fill="url(#bg)"/>
  <rect x="25" y="16" width="50" height="50" rx="6" fill="url(#card)"/>
  <line x1="35" y1="44" x2="35" y2="55" stroke="#8b92b6" stroke-width="1.2" stroke-linecap="round"/>
  <rect x="32" y="46" width="6" height="8" rx="1" fill="#3ddc97"/>
  <line x1="48" y1="35" x2="48" y2="55" stroke="#8b92b6" stroke-width="1.2" stroke-linecap="round"/>
  <rect x="45" y="39" width="6" height="14" rx="1" fill="#ff6b7a"/>
  <line x1="61" y1="28" x2="61" y2="55" stroke="#8b92b6" stroke-width="1.2" stroke-linecap="round"/>
  <rect x="58" y="31" width="6" height="17" rx="1" fill="#3ddc97"/>
  <text x="50" y="62" text-anchor="middle" font-size="7" font-weight="800" letter-spacing="0.5" fill="#7c5cff" font-family="Manrope, -apple-system, sans-serif">GRAM</text>
  <rect x="8" y="58" width="84" height="34" rx="9" fill="url(#wallet)"/>
  <rect x="14" y="57" width="72" height="2.5" rx="1.2" fill="#000" fill-opacity="0.7"/>
  <rect x="8" y="64" width="84" height="1" fill="#ffffff" fill-opacity="0.07"/>
  <circle cx="76" cy="77" r="4" fill="#3e8bff"/>
  <circle cx="76" cy="77" r="1.6" fill="#7c5cff"/>
</svg>
